# xmcd
#
# Track frame offsets:
#	150
#	24335
#	43097
#	64317
#	79568
#	97332
#	111925
#	133504
#	151108
#	171569
#	192681
#	210885
#
# Disc length: 3085 seconds
#
# Revision: 1
# Processed by: cddbd v1.5.2PL0 Copyright (c) Steve Scherf et al.
# Submitted via: EasyCDDAExtractor 16.0.8.1
#
DISCID=a50c0b0c
DTITLE=Varios Artistas - Tocando Tierra Ii
DYEAR=1999
DGENRE=Pop
TTITLE0=Frank Quintero - Tocando Tierra
TTITLE1=J. Madero/W. Choperona - La Pollera Colora
TTITLE2=Andres Soto Mena - El Tamalito
TTITLE3=Ricardo Sandoval - El Cruzao
TTITLE4=Alejandro Zalles - Tu, Yo Y La Vida
TTITLE5=Teresa Fernandez - La Fea
TTITLE6=A. Villoldo/E.Santos/J. Marambino - El Tango Del Choclo
TTITLE7=Carmelo Larrea - Camino Verde
TTITLE8=Joyce Silveira - Chines E A Bicicleta
TTITLE9=C. Hurtado/B.Fleck/E. Colon - Descargate Jam
TTITLE10=Guillermo Rodriguez Fiffe - Bilongo
TTITLE11=Don Grusin/Frank Quintero - Ave. De Las Americas
EXTD=
EXTT0=
EXTT1=
EXTT2=
EXTT3=
EXTT4=
EXTT5=
EXTT6=
EXTT7=
EXTT8=
EXTT9=
EXTT10=
EXTT11=
PLAYORDER=
